<svg xmlns="http://www.w3.org/2000/svg" version="1.0" viewBox="0 0 1632 1305"><path d="M430 289.6c-18.3 3-35.6 8.5-43.9 14.1-1.4 1-3.8 2.4-5.3 3.3-10.1 5.6-35.2 28.5-46.1 42-3.3 4.1-6.5 7.9-7.1 8.5-2.2 1.9-14.3 19.1-19.8 28-4.9 8.1-10.4 18.1-19.7 36-3.1 6-10.7 24-15.4 36.5-6.7 17.8-20.3 66.5-22.7 81-2 12.5-5 34.9-4.8 35.7.1.4-.2 9.6-.6 20.3-.6 18.2.3 54.1 2.3 88.5 1.5 24.1 2.3 30.8 4.2 34.7 1.1 2.1 1.9 5.8 1.9 8.3s.7 6.2 1.5 8.2c.8 1.9 1.5 5 1.5 6.9 0 1.8 1.8 8.4 4 14.5 2.2 6.2 4 12.4 4 13.8s1.6 6.4 3.6 11.1c1.9 4.7 3.9 10.5 4.5 13 .5 2.5 2.5 7.6 4.4 11.5 4.6 9.7 7.9 17.1 10.3 23 5.9 14.9 7.6 18.8 8.7 19.9.7.6 2 2.7 2.9 4.4 2.2 4.2 10.3 16.9 13 20.3 1.2 1.5 3 3.9 4.1 5.5 1.1 1.5 2.9 3.9 4 5.3s3.8 5.3 6 8.5c2.2 3.3 6.5 8.5 9.5 11.7 3 3.1 7.3 8.1 9.4 11 2.2 3 6 7.2 8.4 9.4l4.5 4 451.9.3 452 .2 5.6-5.2c20.5-19.2 48.1-56.1 59.8-80 1.5-3.2 3.4-5.8 4.1-5.8s1.6-1.2 1.9-2.8c.6-2.4 7-16.1 10.2-21.7.6-1.1 1.8-4.6 2.8-7.7.9-3.1 2.2-5.9 2.9-6.2 3.2-1.2 20.9-65.1 24-86.6 7-47.6 8.2-66.1 6.7-103.4-.6-16-1.8-34.3-2.7-40.6-.8-6.3-2-15.1-2.6-19.5-3.2-24.1-5.9-36.7-13.5-61.5-1.9-6.3-4-13.3-4.6-15.5-5.2-20.3-27-67.4-41.6-90.3-14.5-22.6-40.9-54.3-52.3-62.8-15.9-11.9-37.9-24.9-44-26-1.9-.4-4.2-1.1-5.2-1.6-.9-.5-4.1-1.1-7-1.4-2.8-.2-7.6-.9-10.6-1.4-3.5-.6-140.8-1-381-.9-315.8.1-377 .3-384.1 1.5M714 405v71h-37V334h37zm-301.9-67.1c2.1 2.2 2.9 3.9 2.9 6.6s-.8 4.4-2.9 6.6c-2.2 2.1-3.9 2.9-6.6 2.9-5.1 0-9.5-4.4-9.5-9.5s4.4-9.5 9.5-9.5c2.7 0 4.4.8 6.6 2.9m824.5 1.5c2.2 2.2 3.4 4.4 3.4 6.1 0 3.9-5.9 9.5-10 9.5-4.6 0-9-4.7-9-9.5 0-2.7.8-4.4 2.9-6.6 4.1-4.1 8.3-3.9 12.7.5m-779.7 37.9c2.4.8 5 2.2 5.7 3.1.7 1 1.7 1.5 2.3 1.1 1.1-.6 8.4 3.9 11.3 7.2 1.8 2 7.8 12.5 10.5 18.3 2.3 5.2 3.6 17.3 2.8 27.8-1.2 18-1.5 20.8-3 28.2-.8 4.1-2.2 12.2-3.1 18-1.7 11.2-3 19.4-4.5 27.5-1 5.5-1.2 7.4-2.8 28-.5 7.7-1.7 22.1-2.5 32s-1.8 23.2-2.2 29.5c-.3 6.3-1.1 11.8-1.7 12.2-.7.4-.7 1.1-.1 2 .7.8.8 9.1.3 23.3-1.2 37-.2 86.8 2.3 124 1.3 18.7 2.3 43 2.3 54 0 19.4-.1 20.2-2.6 26.3-3.3 7.8-9.2 16.5-14 20.6-2.1 1.7-6.8 4.7-10.5 6.6-6.5 3.3-7.4 3.5-16.9 3.5-9.6 0-10.4-.2-17.6-3.7-7.7-3.8-14.7-9.7-18.9-15.8-1.3-1.9-4.2-5.8-6.6-8.5-9.5-11.5-25.1-40.7-30.2-56.6-1.7-5.3-4-11.8-5.2-14.3-1.2-2.6-3.6-10.7-5.4-17.9-1.9-7.3-4.1-15.7-5-18.7-2-7.2-6.8-35.4-9.6-57-1.1-9-3.1-52-2.4-53.2.3-.4.6-4.9.8-10 .6-12.7 3.2-41.2 5-53.3.8-5.5 1.7-12.2 2.1-14.8 1.2-9.9 6.5-33 8.9-39.4.9-2.1 2.2-6.7 3.1-10.3 2.9-11.4 13.7-37.8 21.8-53 2.2-4.1 7.8-13.8 12.6-21.5 6.9-11.2 10.5-15.9 18.2-23.5 5.2-5.2 10.2-10 11-10.5 7.8-5.4 13.8-8.5 22.4-11.3 4.3-1.5 16.3-1.4 21.4.1m735.6.2c5.3.9 14.2 4.7 20.9 9 5 3.2 9.4 8.1 20.8 23 8.9 11.6 22.7 37.7 29.3 55.6 2.5 6.6 5.2 13.3 6 15 .9 1.6 2.4 6.2 3.5 10.2 1 3.9 3.1 11.2 4.5 16.2 4.8 15.9 5.4 18.4 5.9 23.9.3 3 1.2 7.8 2 10.8.9 2.9 2 9.3 2.6 14.3.6 4.9 1.5 10.8 2 13 3.3 15.3 3.7 74.9.6 103.5-1.3 12.3-6.1 42.7-8.7 55.9-4.6 22.6-27.7 85.4-33.2 89.9-.9.7-1.9 2.6-2.2 4.2s-1.3 3.4-2.1 4.1c-.8.6-1.4 1.7-1.4 2.4s-2.4 4.4-5.3 8.1c-3 3.8-6.9 9.4-8.9 12.4-4.4 6.9-14.1 16-20.3 18.9-9.4 4.4-20.5 5-31.6 1.7-7-2.1-9.9-3.9-15-9.3-7.9-8.2-12.4-18-10.4-22.6.4-1.1.1-2.7-1-4.4-1.5-2.2-1.7-4.2-1.1-14.2.7-13.1 4-44.3 4.9-45.8.3-.5.8-7.4 1.2-15.4.5-13.2 1.2-25.7 3.4-65.4 2.7-46.9-.4-119.4-7.9-187-.4-3.9-1.3-9.7-1.9-13-2.7-14.2-4.3-24.9-5.6-38.5-.8-8-2-19-2.7-24.4-1-8.8-1-10.2.5-12.8.9-1.6 1.7-3.6 1.7-4.3s.7-1.6 1.5-1.9c1.1-.4 1.5-1.7 1.3-4.5-.1-3.2.6-5.1 3.6-9.6 6.6-9.5 14.3-14.8 27.1-18.6 5.8-1.7 7.4-1.7 16-.4m-644.7 71.6c6.8 3.3 10 6.6 14 14.3 2.3 4.4 2.7 6.3 2.7 14.1s-.4 9.7-2.7 14.1c-6.2 11.8-13 16.5-24.8 17.2-6.2.4-8.5.1-12.2-1.6-7-3.1-12.1-8.3-15.8-16.3-3-6.6-3.2-7.6-2.8-15.2.4-7.2.9-9 4-14.2 4.3-7.1 6.7-9.4 13.3-12.8 7.4-3.9 16.1-3.7 24.3.4m557.1.5c4.4 1.8 11.7 8.7 14.1 13.4 3.2 6.2 4.4 14.5 3 21.4-1.6 8.1-3.9 12.3-9.8 17.8-5.6 5.3-10.9 7.2-19.2 7.2-7.5 0-12.5-1.9-17.8-6.7-8.1-7.6-12.4-20.3-10.1-30 3.1-13.4 10.8-21.7 22.6-24.7 4.6-1.1 12.4-.4 17.2 1.6m-797.2 53.6c1.8 1.7 2.3 3.2 2.3 6.9 0 4-.4 5.1-3.1 7.3-4.1 3.5-8.3 3.4-12-.3-3.8-3.9-3.9-8.7-.3-13 2.1-2.5 3.3-3.1 6.7-3.1 2.8 0 4.8.7 6.4 2.2m1018.8-.6c1.9.8 4.5 5.5 4.5 8.4 0 3.5-2.7 7.6-5.9 9-9.6 3.9-17.5-8.6-10.1-16 2-2 8-2.7 11.5-1.4M814 509.5c3.7 3.7 3.5 10.4-.3 14.2-3.9 3.9-10.5 4-14.4 0-5-5-2.9-13.7 4.2-16.8 3-1.3 7.7-.1 10.5 2.6m-267.2 31.6c10.5 5.2 16.2 14.4 17 27.1.4 7 .2 8.2-2.8 14.7-5.7 12.4-14.1 18.1-26.5 18.1-12.2 0-20.4-5.5-26.2-17.5-4.5-9.4-4.7-18.1-.5-27 4-8.3 7.3-11.9 14.4-15.4 4.8-2.5 7.4-3.1 12.3-3.1s7.5.6 12.3 3.1m557.1.5c4.4 1.8 11.7 8.7 14.1 13.4 7.9 15.5 2 36.8-12.4 44.2-5.8 3-17.8 3.3-23.7.7-12.5-5.6-20.6-21.6-17.8-35 4.2-19.9 22.4-30.6 39.8-23.3m-281.4 3.9c13.3 1.8 16 2.7 29.5 9.5 20.6 10.4 34.9 24.4 44.9 44 14.4 28 16.7 57.1 6.9 87-12 37-46.8 65.2-86.1 70.1-30 3.7-63.8-8.5-85.3-30.8-12.5-12.9-22.8-32.4-27.4-51.6-4.1-17.3-3.3-38.7 2-54.8 6.3-18.8 19-38.8 31.2-49 25.5-21.5 51.5-29 84.3-24.4m-123.4 30.4c3.6 3.6 3.9 8.8.8 13.7-3.6 6-12 5.5-15.9-.8-2.4-3.9-2.5-6.9-.5-10.8 1.9-3.7 4.1-4.9 8.8-5 2.9 0 4.5.7 6.8 2.9m224.2-2c6.8 2.6 8.9 10.4 4.3 15.8-2 2.3-3.2 2.8-7.1 2.8-4 0-5.1-.5-7.6-3.3-4.8-5.3-3.3-11.8 3.5-14.8 3.8-1.6 3.9-1.6 6.9-.5m-379 62.8c7.2 2.6 12.1 7.4 16.3 15.8 3.5 7 3.6 7.8 3.2 15.2-.7 11.9-6.3 21.6-15.5 27-3.6 2.1-6.3 2.7-12.4 3.1-7 .4-8.5.2-13.3-2.2-6.2-3.1-10.4-7.4-14.3-14.9-2.5-4.6-2.8-6.3-2.8-14.7 0-9.2.1-9.7 3.8-15.7 6.3-10.5 13.9-15.2 24.2-15.3 3.3 0 8.2.8 10.8 1.7m565.1 3.1c10.1 5.7 16.6 18.6 15.3 30.7-.8 7.9-6.1 18.1-11.5 22.2-9 6.8-20.1 7.8-31 2.6-11.7-5.5-18.6-22.3-14.7-35.9 3.2-11.5 11.1-20 20.8-22.5 5.9-1.5 15.5-.2 21.1 2.9M696 707.5c5.6 2.9 7.6 9 4.8 15-1.3 2.9-5.5 5.5-8.8 5.5-5.3 0-11-5.7-11-11 0-5.1 5.4-10.9 10.3-11 1 0 3.1.7 4.7 1.5m233.2 3.2c2.6 2.5 2.9 3.3 2.5 7.2-.7 6.2-3.4 8.6-9.8 8.6-4.5 0-5.4-.4-8.1-3.4-2.5-2.8-2.9-4-2.5-6.9 1.5-8.8 11.2-11.9 17.9-5.5m-628.1 2.2c2.1 2.2 2.9 3.9 2.9 6.6s-.8 4.4-2.9 6.6c-3.3 3.3-6.7 3.7-11.1 1.4-6.2-3.2-6.8-9.7-1.5-14.4 4.7-4.1 8.6-4.1 12.6-.2m1031.8.7c2.6 2.1 3.1 3.3 3.1 6.9s-.5 4.8-3.1 6.9c-4.1 3.5-8.3 3.4-12-.3-4.2-4.2-4.1-9.9.2-13.5 1.7-1.5 4.3-2.6 5.9-2.6s4.2 1.1 5.9 2.6m-787.4 16.3c7.1 3.3 10.7 7.2 14.8 15.9 2.7 5.7 2.9 7.1 2.5 14-.8 12.3-7.1 22.6-17.1 27.9-5.1 2.6-17.4 3-22.8.6-6.8-3-11.5-7.7-15.4-15.5-3-6.1-3.5-8-3.5-14.2 0-5.7.5-8.3 2.8-13.1 4.1-8.4 7.7-12.3 14.7-15.6 4.5-2.2 7.5-2.9 12-2.9s7.5.7 12 2.9m560.8.9c5.9 2.6 11.4 8.3 14.6 15.1 2.1 4.6 2.5 7.1 2.5 13.6s-.4 9-2.5 13.6c-5.3 11.4-14.4 17.3-26.4 17.3-12.3 0-20.2-5.3-25.9-17.4-5.3-11.4-4-22.5 4-34.1 6.4-9.3 22.2-13.2 33.7-8.1m-290.9 49.3c2.3 2.6 2.7 3.8 2.2 6.7-1.6 10.3-15.7 12.3-20.2 2.9-1.4-3-1.4-3.7 0-7 3-7.2 12.5-8.6 18-2.6m-442.9 95.5c1.9.8 4.5 5.5 4.5 8.3 0 3.4-2.3 7.2-5.1 8.7-9.2 4.7-17.3-4.1-12.4-13.6.8-1.5 2-3 2.7-3.3 1.9-.8 8.4-.8 10.3-.1m883 1c3.7 1.5 5.6 9 3.4 13.7-3.8 8.5-17.9 4.3-17.9-5.3 0-2.6 2.5-7.7 4.2-8.3 1.9-.8 8.4-.8 10.3-.1"/></svg>